<svg xmlns="http://www.w3.org/2000/svg" viewBox="0 0 602 258" preserveAspectRatio="xMidYMid slice">
  <defs>
    <mask id="paintMask1" fill="#fff">
      <path id="maskpath1" d="M 30 42 l 580 0 z" stroke-width="85" stroke-linecap="round" fill="#fff" />
    </mask>
    <mask id="paintMask2">
      <path id="maskpath2" d="M 602 82 l -583 53 z" stroke-width="110" stroke-linecap="round" stroke="#fff" />
    </mask>
    <mask id="paintMask3">
      <path id="maskpath3" d="M 24 131 l 586 16 z" stroke-width="100" stroke-linecap="round" />
    </mask>
    <mask id="paintMask4">
      <path id="maskpath4" d="M 595 220 l -592 -14 z" stroke-width="110" stroke-linecap="round" />
    </mask>
  </defs>
  <g id="strokes" height="100%">
    <path mask="url(#paintMask1)"
      d="M598 32c1 4 1 6-3 7l-5 2c-4 0-5 3-7 6-1 2 0 3 2 2h2l1 3a2 2 0 002 0 4 4 0 013-1 3 3 0 010 4c-2 5-5 10-9 14a20 20 0 01-9 5 238 238 0 01-37 6l-32 2-39 3c-25 2-50 0-76 0a774 774 0 00-73 2l-45-1h-37l-26 1-31-2-44-2a347 347 0 01-36-3l-40-5-31-2-12-2c-3 0-5-2-6-4-1-3-2-7-5-9a3 3 0 01-1-2c1-6-2-11-4-16l1-4c4-1 7-3 6-9-1-1 2-4 5-5l1-1c8-4 16-1 25-1a9 9 0 003 0c9-3 18 0 28 0 2 1 3 2 5-1 1-2 5-2 7-3-12-4-26-4-39-6h6a20 20 0 008 1l2-1c-2-6 3-3 4-3h12a1 1 0 000-1l-1-1 11-1c5-1 11 1 16 1l16 1 26 3 45 1 34 2h48l36 1c8 0 16-2 24-1h49l33-1 34-1a137 137 0 0020 0l51-3 14-1h22c8 0 15-3 23-4 5-1 10-3 16-2 3 1 6 3 5 6s0 5 3 8l2 3c2 1 2 3 0 5l-1 6c1 2-1 2-2 4l-10 2c5 3 6 3 10-2z" />
    <path mask="url(#paintMask2)"
      d="M154 70c25-3 49-4 73-5l61-2 22-2 58-2c11 1 23 0 34-1l48-4 21-2 37-5c12-2 23-5 35-6l21-2 8 2 12 7a15 15 0 017 9l6 10a59 59 0 015 19 6 6 0 01-1 3 8 8 0 000 7 5 5 0 010 5l-3 9c-1 2 1 2 2 2 2 1 2 3 0 4l-2 2c0 4-2 4-6 3-1-1-5 1-5 3 1 2 0 2-2 3a20 20 0 01-6 2c-3 0-6-1-7 3l-3 1c-3-1-6 0-9 1l-32 5-40 7-47 6-43 3-55 2-27 2-53 1c-9-1-18 1-27 1h-14l-25 1c-21 0-41 3-62 4l-37 5-32 4c-5 1-10 3-15 2-3 0-7 1-9-2l-6-2c-4-1-8-2-9-6l-1-1c-5-3-6-8-10-12-1-2-3-4-1-7 2-2 0-5-2-7 0-1-2-2-1-3 4-2 2-6 5-9s1-7 4-11l-2-1-1-2c4-2 2-7 6-8 3 0 4-2 2-4v-3l8-6c4-1 6-3 9-5a51 51 0 0115-4c32-6 64-12 96-14z" />
    <path mask="url(#paintMask3)"
      d="M581 129l-3-2c0-2-2-2-3-3l-2-1c4-2 0-4 0-6l4-2-7-2a4 4 0 01-4-3c0-2 2-2 4-3 1 0 2 0 2-2-2 0-6 0-7-4 0-2-2-2-3-2l-36-6-56-3-58-1c-23-1-45-2-68-1l-78 1H164l-58-3c-17-1-35-3-53-2-6 1-11 2-14 7-4 4-9 8-12 14a103 103 0 00-6 24l-2 20-1 4a9 9 0 00-1 4c1 4 8 12 11 14l12 6a40 40 0 0015 4 401 401 0 0048 3l24 2 21 1 48 2 24-1h33l41-1h62l43 1h52l63 2 35 1a71 71 0 0026-7c4-1 6-5 9-8l5-5c3-3 4-5 1-7-3-3-2-4 0-6 1-1 2-2 1-4s-2-3-4-3-3 0-2-2c0-2-3-6-6-5-3 0-4-1-4-4a12 12 0 00-1-5c-2-4-1-5 3-6z" />
    <path mask="url(#paintMask4)"
      d=" M20 216c-2 3-4 2-6 0-1 2 1 2 1 3 2 0 4 0 3 2h-3c-3 0-5-2-8-1 3 3 7 3 11 3 3 1 4 3 5 4 2 2-2 1-2 3 2 3 7 3 7 6l1 1c5 0 9 4 14 4l88 8 43 2 22 1 61 4 46 1h68l54-3 45-3 68-5a60 60 0 0013-2l2-1c4-4 10-5 15-5 3-1 6 0 5-4-1-1 1-1 1-1a19 19 0 015 0c4 1 8 0 10-3l1-1c0-7 4-7 9-7 1 0 3-2 3-4a23 23 0 010-6c0-5-3-10-6-14-6-7-15-9-24-11-7-3-15-2-23-4a189 189 0 00-24-2c-5 0-10-2-16 0s-13 1-19 1h-31l-31 2h-16l-4 1h-8c-3 0-5-2-8 0l-6 1h-22l-28-1h-26a120 120 0 01-13-1c-3-1-7-2-9 2l-5 1-44-3a16 16 0 01-9-2c4-2 8 1 12-1a36 36 0 00-12-1h-2c-1 4-5 3-8 3l-11-1a12 12 0 00-6-1c-8 1-17-1-25-1l-55-5a18 18 0 01-9-3l16 1c-4-2-7-2-11-2l-29-2a92 92 0 00-30 2 21 21 0 01-17-3c-4-2-9-4-14-2-2 0-3 2-5 3h-1c4 5-2 5-4 8h10c1 0 3 0 3 2s-2 1-4 1c-5-1-11-1-16 2 2 3 5 3 7 3l13 2c1 0 3 0 3 2s-1 2-2 3l-11 3c3 2 7 1 10 2 1 0 3 0 2 2 0 1-1 3-3 2h-1a8 8 0 00-2-1c-2 0-5-1-5 2-1 2 2 2 4 3l7 1c-2 2-2 4-5 3-4-1-8 1-11 2l-3 1c0 2 2 2 3 2l2 2c1 0 3-1 5 1-2 0-4 1-5-1z" />
  </g>
</svg>