<?xml version="1.0" standalone="no"?>
<!DOCTYPE svg PUBLIC "-//W3C//DTD SVG 20010904//EN"
 "http://www.w3.org/TR/2001/REC-SVG-20010904/DTD/svg10.dtd">
<svg version="1.0" xmlns="http://www.w3.org/2000/svg"
 width="512.000000pt" height="512.000000pt" viewBox="0 0 512.000000 512.000000"
 preserveAspectRatio="xMidYMid meet">
<metadata>
Created by potrace 1.14, written by Peter Selinger 2001-2017
</metadata>
<g transform="translate(0.000000,512.000000) scale(0.100000,-0.100000)"
fill="#000000" stroke="none">
<path d="M2265 4923 l0 -198 265 -3 c146 -1 270 -4 276 -6 8 -3 6 -29 -8 -88
-18 -81 -34 -158 -44 -208 -3 -14 -30 -137 -59 -275 -84 -388 -156 -728 -161
-754 -3 -13 -12 -54 -20 -90 -8 -36 -17 -77 -19 -91 -9 -42 -45 -212 -55 -256
-13 -56 -70 -323 -76 -354 -4 -20 -35 -168 -59 -280 -2 -8 -9 -37 -15 -65 -6
-27 -14 -61 -16 -75 -3 -14 -30 -140 -60 -280 -31 -140 -67 -309 -80 -375 -14
-66 -27 -127 -29 -135 -5 -20 -44 -207 -49 -234 -2 -11 -9 -39 -14 -61 -6 -22
-13 -53 -15 -70 -3 -16 -10 -50 -15 -75 -17 -73 -41 -183 -47 -212 -3 -16 -7
-38 -10 -50 -3 -13 -18 -81 -33 -153 l-27 -130 -320 -5 -320 -5 0 -197 0 -198
800 0 800 0 0 198 0 197 -276 3 -276 2 28 133 c32 149 52 243 139 647 34 157
64 296 66 310 3 14 32 151 65 305 33 154 62 289 65 300 2 11 6 31 9 45 3 14 7
34 9 45 2 11 29 137 60 280 31 142 58 268 60 280 4 15 149 701 171 800 2 11
25 117 50 235 26 118 48 222 50 230 18 86 118 550 121 565 3 11 10 47 17 80
l13 60 319 5 320 5 0 195 0 195 -800 3 -800 2 0 -197z"/>
</g>
</svg>
