<svg version="1" xmlns="http://www.w3.org/2000/svg" width="682.667" height="682.667" viewBox="0 0 512.000000 512.000000"><path d="M226.5 19.7v19.8l26.5.3c14.6.1 27 .4 27.6.6.8.3.6 2.9-.8 8.8-1.8 8.1-3.4 15.8-4.4 20.8-.3 1.4-3 13.7-5.9 27.5-8.4 38.8-15.6 72.8-16.1 75.4-.3 1.3-1.2 5.4-2 9-.8 3.6-1.7 7.7-1.9 9.1-.9 4.2-4.5 21.2-5.5 25.6-1.3 5.6-7 32.3-7.6 35.4-.4 2-3.5 16.8-5.9 28-.2.8-.9 3.7-1.5 6.5-.6 2.7-1.4 6.1-1.6 7.5l-6 28c-3.1 14-6.7 30.9-8 37.5-1.4 6.6-2.7 12.7-2.9 13.5-.5 2-4.4 20.7-4.9 23.4-.2 1.1-.9 3.9-1.4 6.1-.6 2.2-1.3 5.3-1.5 7-.3 1.6-1 5-1.5 7.5-1.7 7.3-4.1 18.3-4.7 21.2-.3 1.6-.7 3.8-1 5-.3 1.3-1.8 8.1-3.3 15.3l-2.7 13-32 .5-32 .5V512h160v-39.5l-27.6-.3-27.6-.2 2.8-13.3c3.2-14.9 5.2-24.3 13.9-64.7 3.4-15.7 6.4-29.6 6.6-31 .3-1.4 3.2-15.1 6.5-30.5s6.2-28.9 6.5-30c.2-1.1.6-3.1.9-4.5.3-1.4.7-3.4.9-4.5.2-1.1 2.9-13.7 6-28 3.1-14.2 5.8-26.8 6-28 .4-1.5 14.9-70.1 17.1-80 .2-1.1 2.5-11.7 5-23.5 2.6-11.8 4.8-22.2 5-23 1.8-8.6 11.8-55 12.1-56.5.3-1.1 1-4.7 1.7-8l1.3-6 31.9-.5 32-.5V.5l-80-.3-80-.2v19.7z"/></svg>